<svg width="20" height="13" viewBox="0 0 20 13" fill="none" xmlns="http://www.w3.org/2000/svg">
<path id="Vector" d="M10 2.4375C13.0667 2.4375 15.8 3.9975 17.2333 6.5C15.8 9.0025 13.0667 10.5625 10 10.5625C6.93333 10.5625 4.2 9.0025 2.76667 6.5C4.2 3.9975 6.93333 2.4375 10 2.4375ZM10 0C5.45 0 1.56667 2.6975 0 6.5C1.56667 10.3025 5.45 13 10 13C14.55 13 18.4333 10.3025 20 6.5C18.4333 2.6975 14.55 0 10 0ZM10 8.9375C8.61667 8.9375 7.5 7.84875 7.5 6.5C7.5 5.15125 8.61667 4.0625 10 4.0625C11.3833 4.0625 12.5 5.15125 12.5 6.5C12.5 7.84875 11.3833 8.9375 10 8.9375Z" fill="#A1AAB1"/>
</svg>
